<?xml version="1.0"?>
<svg version="1.1" xmlns="http://www.w3.org/2000/svg" width="400" height="200" style=""><path fill="#ffffff" d="M53.272,95.538q0.966,0,0.966,0.69q0,2.806-7.728,16.054q0.322,1.242,1.012,2.898l13.708-10.442q7.866-5.98,10.626-7.682q6.164-3.68,12.098-3.68q1.702,0,3.128,0.552q0.874,0.322,0.874,1.196t-0.46,0.874q-0.276,0-0.575-0.368t-1.748-0.368t-4.715,0.736q-5.152,1.15-11.684,5.152q-4.094,2.53-10.948,7.774t-9.89,7.222q2.346,4.922,6.026,9.154q5.658,6.578,10.166,6.578q2.208,0,2.208-1.702q0-0.322-0.069-0.644t0.161-0.782t0.552-0.46q0.598,0,0.782,1.426q0.046,0.23,0.046,0.46q0,1.472-1.495,2.415t-3.542,0.943t-3.427-0.644q-3.634-1.794-7.337-6.302t-5.681-9.476q-2.53,1.472-4.186,1.61q-3.082,4.002-7.59,7.774q-2.438,2.07-5.29,3.335t-5.474,1.265q-3.726,0-5.75-1.863t-2.024-5.681q0-1.886,0.736-3.496q2.346-5.198,7.084-7.176q2.622-1.15,5.221-1.15t3.473,1.702q0.322,0.598,0.322,1.265t-0.184,0.851t-0.506-0.322q-1.104-2.024-2.346-2.254q-0.828-0.092-1.196-0.092q-3.588,0-6.716,2.99q-4.048,3.91-4.048,8.464q0,4.968,5.612,5.612l0.368,0q2.024,0,5.198-1.794q5.152-2.944,10.994-10.12q-1.058-0.966-1.058-2.852t1.403-3.565t3.841-1.679q0.69,0,1.288,0.138q2.3-3.864,4.462-8.349t2.162-5.175q0-0.092-0.276-0.092t-3.197,1.449t-4.163,2.277t-3.036,2.599t-1.794,2.875q0,0.506,0.713,1.012t2.599,0.506q0.23,0.092,0.23,0.253t-1.265,0.368t-2.001,0.207q-1.656,0-1.656-1.38q0-1.61,1.978-3.864t4.324-3.542q6.854-3.68,8.694-3.68z M45.958,116.146q-0.368-0.92-0.598-1.84q-0.92,1.334-1.84,2.622q0.46,0,0.828-0.069t1.61-0.713z M44.21,112.19q-0.552-0.23-1.219-0.23t-1.334,0.828t-0.667,1.771t0.506,1.587q2.254-3.22,2.714-3.956z M75.35982,113.846l0.644-0.138q0.506,0,0.966,0.414t0.46,0.644t-2.852,4.439t-2.852,5.865q0,0.138,0.046,0.276q0.23,1.058,1.012,1.058q2.392,0,8.74-7.912q0.138-0.184,0.322-0.184t0.184,0.345t-0.414,0.897q-5.888,7.866-8.97,7.866q-0.414,0-0.782-0.138q-2.024-0.782-2.024-3.036q0-0.782,0.184-1.564l-2.852,2.76q-2.714,2.392-3.933,2.392t-2.323-0.782q-1.242-0.92-1.242-2.438q0-3.358,4.692-8.027t8.602-4.669q1.518,0,2.024,1.058q0.138,0.368,0.23,0.621t0.138,0.253z M61.60582,125.162q0,1.656,1.15,1.656q2.668,0,7.268-5.842l4.876-6.716q-0.368-0.644-1.196-0.644q-2.806,0-7.452,4.347t-4.646,7.199z M103.05964,127.048q-3.128,0-3.128-2.898q0-1.656,1.472-4.531t3.082-4.853q-2.852,1.38-6.578,4.991t-5.198,7.567q-0.23,0.368-0.782,0.368q-1.104,0-1.104-1.242q0.46-2.53,2.07-5.796q0.506-1.058,2.99-6.164q-3.588,2.346-6.095,5.037t-4.646,5.405t-2.415,2.714q-0.598,0-1.035-0.552t-0.437-1.104q0-0.828,2.392-6.072l-2.76,2.898q-1.012,1.012-1.265,1.012t-0.253-0.299t0.368-0.667q1.702-1.702,3.036-3.404t4.416-6.072q0.506-0.69,1.426-0.69t0.92,0.874q0,0.322-2.438,4.485t-2.714,5.221q1.886-2.07,5.658-5.566q5.658-5.244,7.452-5.244q0.552,0,1.012,0.322t0.46,0.713t-1.794,3.473q-1.748,3.174-1.932,3.772q5.106-4.278,5.106-4.324q4.324-3.358,6.21-3.358q0.552,0,1.035,0.345t0.483,0.805q0,0.092-2.99,3.887t-3.358,6.233q-0.092,0.828,0.322,1.242t1.495,0.414t3.174-1.495t4.255-4.025q0.828-0.92,1.127-0.92t0.299,0.23q0,0.322-0.414,0.736q-2.254,2.714-4.853,4.623t-4.071,1.909z M122.61746,116.146q0-3.128,1.932-3.128q0.184,0,0.414,0.046q0.782,0.138,0.782,1.196t-0.368,2.668q-0.368,1.196-0.506,1.794q0.138,0.782,0.759,2.001t1.702,1.219t2.415-1.472q0.276-0.322,0.529-0.322t0.276,0.299t-0.345,0.805q-1.426,1.702-2.99,1.702q-2.254,0-3.634-3.312q-1.426,3.266-4.048,5.635t-5.198,2.369q-2.438,0-2.438-3.68q0-2.898,5.405-10.672t8.257-7.774q0.598,0,1.081,0.368t0.483,0.874q0-0.046-0.667,0.69t-3.634,3.956t-5.819,7.084t-2.852,5.98q0,0.552,0.299,1.196t0.989,0.644q2.024,0,4.738-3.128q2.254-2.76,2.76-4.646q-0.322-0.966-0.322-2.392z M146.22328,113.846l0.644-0.138q0.506,0,0.966,0.414t0.46,0.644t-2.852,4.439t-2.852,5.865q0,0.138,0.046,0.276q0.23,1.058,1.012,1.058q2.392,0,8.74-7.912q0.138-0.184,0.322-0.184t0.184,0.345t-0.414,0.897q-5.888,7.866-8.97,7.866q-0.414,0-0.782-0.138q-2.024-0.782-2.024-3.036q0-0.782,0.184-1.564l-2.852,2.76q-2.714,2.392-3.933,2.392t-2.323-0.782q-1.242-0.92-1.242-2.438q0-3.358,4.692-8.027t8.602-4.669q1.518,0,2.024,1.058q0.138,0.368,0.23,0.621t0.138,0.253z M132.46928,125.162q0,1.656,1.15,1.656q2.668,0,7.268-5.842l4.876-6.716q-0.368-0.644-1.196-0.644q-2.806,0-7.452,4.347t-4.646,7.199z M159.0421,125.162q0.621,0.46,0.621,1.035t-0.575,1.012t-1.265,0.437t-1.265-0.483t-0.575-1.127q0-1.334,1.748-1.334q0.69,0,1.311,0.46z M183.13092,105.106q0,1.426-0.828,1.426q-0.23,0-0.46-0.368q-0.414-0.736-1.38-0.736q-2.116,0-3.956,3.036q-0.368,0.598-2.3,4.324l0.552,0q5.014,0,6.67-0.138q0.184,0.046,0.184,0.184q0,0.368-3.266,1.012q-3.082,0.506-5.06,0.874q-1.426,2.944-3.45,6.992q-4.14,7.728-5.474,9.614q-4.002,5.704-7.82,5.704q-1.334,0-2.323-1.127t-1.035-2.507q0.138-0.552,0.414-0.552q0.138,0,0.184,0.322q0.276,1.196,0.92,1.84t1.334,0.644q3.91,0,7.13-4.83q1.84-2.76,5.014-9.936l2.484-5.98q-4.6-0.046-4.6-1.104q0-0.46,0.437-0.782t0.759-0.322l4.324,0.092q4.508-10.028,8.28-10.028q1.426,0,2.898,1.38q0.368,0.368,0.368,0.966z M188.81974,109.269q0.621,0.437,0.621,1.035t-0.575,1.035t-1.265,0.437t-1.265-0.506t-0.575-1.15q0-1.288,1.748-1.288q0.69,0,1.311,0.437z M179.18274,128.106q-2.346,0-2.346-3.036q0-2.484,2.714-6.877t4.37-4.439q0.46,0,1.035,0.368t0.575,0.736q-0.23,0.322-0.552,0.713t-0.69,0.851t-1.012,1.311t-1.242,1.633q-3.45,4.462-3.45,6.141t1.15,1.679q0.966,0,2.622-1.058q3.864-2.392,6.118-5.244q0.828-1.058,1.127-1.058t0.299,0.368t-1.058,1.472t-1.679,1.748t-0.851,0.851t-0.851,0.782t-0.943,0.805t-0.92,0.69t-1.058,0.667t-1.058,0.483q-0.966,0.414-2.3,0.414z M197.36056,113.064q1.242,0,1.242,0.966q0,0.276-0.138,0.552q-4.14,5.75-4.968,8.694q10.718-10.718,13.018-10.718q0.23-0.046,0.414-0.046q1.288,0,1.288,1.15q0,0.23-0.092,0.46t-1.84,2.484q-2.024,2.392-3.427,4.6t-1.403,3.68t0.644,1.472q2.024,0,7.038-5.566q0.092-0.092,0.322-0.414q0.69-0.828,0.828-0.828t0.138,0.46t-0.644,1.196q-5.704,6.486-8.096,6.486q-2.254,0-2.254-2.484t1.84-5.704l2.944-4.784q-3.128,2.3-5.566,5.037t-4.439,5.313t-2.323,2.576q-0.69,0-1.081-0.575t-0.391-1.426t0.598-2.277t1.518-3.45l-2.76,2.898q-1.012,1.012-1.265,1.012t-0.253-0.299t0.368-0.667q1.702-1.702,2.944-3.266q1.196-1.564,4.922-5.98q0.414-0.552,0.874-0.552z M225.79638,113.846l0.644-0.138q0.506,0,0.966,0.414t0.46,0.644t-2.852,4.439t-2.852,5.865q0,0.138,0.046,0.276q0.23,1.058,1.012,1.058q2.392,0,8.74-7.912q0.138-0.184,0.322-0.184t0.184,0.345t-0.414,0.897q-5.888,7.866-8.97,7.866q-0.414,0-0.782-0.138q-2.024-0.782-2.024-3.036q0-0.782,0.184-1.564l-2.852,2.76q-2.714,2.392-3.933,2.392t-2.323-0.782q-1.242-0.92-1.242-2.438q0-3.358,4.692-8.027t8.602-4.669q1.518,0,2.024,1.058q0.138,0.368,0.23,0.621t0.138,0.253z M212.04238,125.162q0,1.656,1.15,1.656q2.668,0,7.268-5.842l4.876-6.716q-0.368-0.644-1.196-0.644q-2.806,0-7.452,4.347t-4.646,7.199z M238.9142,113.064q1.242,0,1.242,0.966q0,0.276-0.138,0.552q-4.14,5.75-4.968,8.694q10.718-10.718,13.018-10.718q0.23-0.046,0.414-0.046q1.288,0,1.288,1.15q0,0.23-0.092,0.46t-1.84,2.484q-2.024,2.392-3.427,4.6t-1.403,3.68t0.644,1.472q2.024,0,7.038-5.566q0.092-0.092,0.322-0.414q0.69-0.828,0.828-0.828t0.138,0.46t-0.644,1.196q-5.704,6.486-8.096,6.486q-2.254,0-2.254-2.484t1.84-5.704l2.944-4.784q-3.128,2.3-5.566,5.037t-4.439,5.313t-2.323,2.576q-0.69,0-1.081-0.575t-0.391-1.426t0.598-2.277t1.518-3.45l-2.76,2.898q-1.012,1.012-1.265,1.012t-0.253-0.299t0.368-0.667q1.702-1.702,2.944-3.266q1.196-1.564,4.922-5.98q0.414-0.552,0.874-0.552z M255.57402,128.198q-0.506,0-0.92-0.138q-2.944-0.828-2.944-3.312q0-3.22,4.048-7.452t7.268-4.232q1.058,0,1.725,0.575t0.667,1.564t-0.598,2.07t-1.794,1.081t-1.196-0.736q0-0.506,0.621-1.541t0.621-1.104t-0.138-0.069q-1.288,0.138-3.519,1.84t-3.059,2.852l-1.794,2.622q-0.46,0.736-0.667,1.748t-0.207,1.518t0.575,1.15t1.633,0.644q2.3,0,5.704-2.691t5.244-5.129q0.23-0.276,0.552-0.276t0.322,0.184t-0.23,0.46q-2.53,3.358-6.049,5.865t-5.865,2.507z M269.47384,128.198q-0.506,0-0.92-0.138q-2.944-0.828-2.944-3.312q0-3.22,4.048-7.452t7.268-4.232q1.058,0,1.725,0.575t0.667,1.403q0,2.576-3.887,4.922t-6.325,2.346q-0.368,0-0.644-0.092q-0.69,1.242-0.69,2.622q0,2.392,2.277,2.392t5.911-3.082q2.806-2.254,4.784-4.784q0.414-0.552,0.713-0.552t0.299,0.276t-0.368,0.782q-2.484,3.266-5.98,5.796t-5.934,2.53z M278.16784,114.95q0-0.552-1.173-0.552t-3.335,1.794q-2.898,2.392-4.508,5.014q0.276,0.092,0.598,0.092q1.748,0,4.669-1.863t3.657-4.071q0.092-0.23,0.092-0.414z M289.44566,117.48q2.99,0,5.773-1.127t4.117-3.335q0.506-0.874,0.506-1.472q0-1.012-1.334-1.587t-4.278-1.127q-3.864,5.152-6.21,8.602q0.46,0.046,1.426,0.046z M291.23966,104.876q0,1.334,2.392,2.07q2.116-2.806,5.06-6.624q-3.956,0.368-6.072,2.254q-1.38,1.288-1.38,2.3z M287.55966,118.032q-3.91,5.888-3.91,7.636q0,0.782,0.506,1.012q0.184,0.138-0.115,0.46t-0.759,0.322q-0.69,0-0.69-1.357t0.874-3.795q0.46-1.196,2.53-4.508q-3.542-0.874-4.416-3.634q-0.276-0.644-0.276-1.38t0.46-1.564q0.828-1.426,2.116-1.426q0.276,0,0.276,0.092q0,0.184-0.552,0.506l-0.782,0.552q-0.506,0.506-0.506,1.426q0,1.702,1.242,3.013t2.852,1.771q2.622-3.956,6.118-8.694q-3.082-0.828-3.082-3.082q0-1.656,2.07-3.312q3.174-2.484,7.912-2.668q4.462-5.566,4.968-5.566t0.759,0.253t0.253,0.552t-0.368,0.759q-1.518,1.748-3.45,4.14q3.818,0.552,3.818,2.99q0,1.702-1.794,2.392q-1.058,0.414-1.771,0.414t-0.713-0.368q0-0.184,0.644-0.23q2.392-0.138,2.392-1.794q0-2.162-3.266-2.576q-2.438,2.99-5.52,6.992q1.426,0.184,4.278,0.966q2.208,0.874,2.208,2.53t-1.518,3.312t-3.128,2.392q-3.404,1.564-7.728,1.564q-0.736,0-1.932-0.092z"/><path fill="#" d=""/></svg>
