<?xml version="1.0"?>
<svg version="1.1" xmlns="http://www.w3.org/2000/svg" width="200" height="200" style=""><path fill="#ffffff" d="M16.435,124.6l0-3.485l3.075-1.23l0-19.352l-3.075-1.23l0-3.403l12.505-0.205l0,3.608l-3.075,1.23l0,7.052l2.788,0l6.847-11.685l7.585-0.205l0,3.608l-3.895,1.148l-5.371,8.938l7.626,10.496l3.075,1.23l0,3.485l-12.505,0l0-3.485l2.46-1.23l-5.617-7.79l-2.993,0l0,7.79l3.075,1.23l0,3.485l-12.505,0z M62.78591,124.6l-0.738-2.665s-3.157,3.075-6.642,3.075c-3.977,0-6.396-2.337-6.396-6.437c0-4.838,3.649-6.765,9.881-6.765l2.87,0l0-2.255c0-2.091-1.107-2.993-3.157-2.993c-2.091,0-3.608,0.615-3.608,0.615l-0.615,2.583l-3.69,0l-0.287-6.068s4.961-1.64,8.897-1.64c6.232,0,8.61,2.173,8.61,8.118l0,10.127l3.075,0.738l0,3.28z M61.76091,115.293l-2.337,0c-3.198,0-4.469,0.82-4.469,2.665c0,1.558,0.861,2.46,2.419,2.46c2.173,0,4.387-2.378,4.387-2.378l0-2.747z M114.54882,121.32l0,3.28l-11.111,0l0-3.28l2.173-1.025l0-9.758c0-2.255-0.656-3.362-2.378-3.362c-2.665,0-4.551,2.132-4.551,2.132l0,10.988l2.132,1.025l0,3.28l-10.414,0l0-3.28l2.132-1.025l0-9.758c0-2.255-0.574-3.362-2.337-3.362c-2.665,0-4.592,2.132-4.592,2.132l0,10.988l2.173,1.025l0,3.28l-11.48,0l0-3.28l3.157-1.025l0-13.325l-3.116-1.025l0-3.28l8.569-0.205l0.287,2.911s3.567-3.321,7.175-3.321c2.911,0,4.715,1.353,5.658,3.526c0.697-0.697,3.772-3.526,7.421-3.526c4.305,0,6.314,2.788,6.314,7.38l0,10.865z M127.85373,92.825l0,11.398c0.697-0.533,2.747-2.173,5.863-2.173c5.494,0,8.405,3.977,8.405,10.865c0,7.708-4.018,12.177-11.89,12.177c-4.51,0-8.528-0.902-8.528-0.902l0-26.937l-3.075-0.82l0-3.28z M127.85373,108.815l0,11.029s0.943,0.328,3.034,0.328c3.567,0,4.879-2.706,4.879-6.847c0-4.1-1.148-6.355-4.018-6.355c-2.46,0-3.895,1.845-3.895,1.845z M162.02764,124.6l-0.738-2.665s-3.157,3.075-6.642,3.075c-3.977,0-6.396-2.337-6.396-6.437c0-4.838,3.649-6.765,9.881-6.765l2.87,0l0-2.255c0-2.091-1.107-2.993-3.157-2.993c-2.091,0-3.608,0.615-3.608,0.615l-0.615,2.583l-3.69,0l-0.287-6.068s4.961-1.64,8.897-1.64c6.232,0,8.61,2.173,8.61,8.118l0,10.127l3.075,0.738l0,3.28z M161.00264,115.293l-2.337,0c-3.198,0-4.469,0.82-4.469,2.665c0,1.558,0.861,2.46,2.419,2.46c2.173,0,4.387-2.378,4.387-2.378l0-2.747z M176.76755,121.402c0-2.337,1.681-3.69,3.526-3.69c2.255,0,3.444,1.353,3.444,3.69c0,2.378-1.681,3.731-3.526,3.731c-2.255,0-3.444-1.353-3.444-3.731z M194.58246,102.87l0-1.845c0-5.207,2.993-8.692,8.815-8.692c4.428,0,7.257,1.517,7.257,1.517l-0.123,6.027l-3.69,0l-0.615-2.87s-0.984-0.164-2.337-0.164c-2.255,0-3.157,1.353-3.157,3.485l0,2.542l5.33,0l-0.123,4.1l-5.207,0l0,13.325l4.1,1.025l0,3.28l-13.53,0l0-3.28l3.28-1.025l0-13.325l-3.69,0l0-3.485z M215.02137,95.695c0-2.337,1.681-3.69,3.526-3.69c2.132,0,3.444,1.107,3.444,3.69c0,2.419-1.763,3.731-3.444,3.731c-2.214,0-3.526-1.312-3.526-3.731z M221.90937,120.295l2.87,1.025l0,3.28l-12.3,0l0-3.28l3.28-1.025l0-13.325l-3.28-1.025l0-3.28l9.43-0.205l0,17.835z M238.98628,102.46l0.287,2.829s3.895-3.157,7.544-3.157c3.977,0,6.232,2.829,6.232,7.298l0,10.865l2.87,1.025l0,3.28l-11.275,0l0-3.28l2.255-1.025l0-9.758c0-1.886-1.066-3.28-2.788-3.28c-2.542,0-4.387,2.337-4.387,2.337l0,10.701l2.255,1.025l0,3.28l-11.685,0l0-3.28l3.28-1.025l0-13.325l-3.28-1.025l0-3.28z M275.21019,124.6l-0.738-2.665s-3.157,3.075-6.642,3.075c-3.977,0-6.396-2.337-6.396-6.437c0-4.838,3.649-6.765,9.881-6.765l2.87,0l0-2.255c0-2.091-1.107-2.993-3.157-2.993c-2.091,0-3.608,0.615-3.608,0.615l-0.615,2.583l-3.69,0l-0.287-6.068s4.961-1.64,8.897-1.64c6.232,0,8.61,2.173,8.61,8.118l0,10.127l3.075,0.738l0,3.28z M274.18519,115.293l-2.337,0c-3.198,0-4.469,0.82-4.469,2.665c0,1.558,0.861,2.46,2.419,2.46c2.173,0,4.387-2.378,4.387-2.378l0-2.747z M297.4121,102.46l0.287,2.829s3.895-3.157,7.544-3.157c3.977,0,6.232,2.829,6.232,7.298l0,10.865l2.87,1.025l0,3.28l-11.275,0l0-3.28l2.255-1.025l0-9.758c0-1.886-1.066-3.28-2.788-3.28c-2.542,0-4.387,2.337-4.387,2.337l0,10.701l2.255,1.025l0,3.28l-11.685,0l0-3.28l3.28-1.025l0-13.325l-3.28-1.025l0-3.28z M337.08001,117.917l2.05,3.608c-1.025,0.902-4.223,3.485-8.815,3.485c-6.765,0-10.66-4.182-10.66-11.152c0-7.298,4.1-11.808,11.275-11.808c3.526,0,7.175,1.435,7.175,1.435l-0.205,6.724l-3.69,0l-0.574-2.911s-1.189-0.328-2.829-0.328c-2.952,0-4.797,1.968-4.797,6.068c0,4.469,1.722,7.052,5.125,7.052c2.87,0,4.674-1.435,5.945-2.173z M364.03792,114.883l-13.612,0c0.246,3.28,2.132,5.207,4.961,5.207c3.403,0,6.888-1.927,6.888-1.927l1.763,3.403s-4.1,3.444-9.348,3.444c-7.052,0-10.66-4.1-10.66-11.07c0-7.175,4.059-11.89,10.947-11.89c6.109,0,9.307,3.772,9.307,9.635c0,1.558-0.246,3.075-0.246,3.198z M350.50792,111.07l7.421,0c0-2.337-0.984-4.1-3.362-4.1c-2.296,0-3.731,1.681-4.059,4.1z M377.79383,130.586l0-5.535c-3.772-0.205-6.97-1.312-6.97-1.312l0-7.257l3.772,0l0.615,3.075s1.394,0.738,3.567,0.738c2.46,0,4.592-0.943,4.592-2.911c0-4.387-12.546-2.296-12.546-11.644c0-4.264,2.87-6.888,6.97-7.667l0-4.838l4.387,0l0,4.674c3.526,0.287,6.396,1.476,6.396,1.476l-0.164,6.724l-3.526,0l-0.779-3.034s-1.722-0.615-3.28-0.615c-2.624,0-3.977,1.107-3.977,2.583c0,4.346,12.505,2.542,12.505,11.439c0,4.592-2.952,7.421-7.175,8.323l0,5.781l-4.387,0z"/><path fill="#" d=""/></svg>
